<?xml version="1.0" encoding="UTF-8"?>
<svg width="1409px" height="1409px" viewBox="0 0 1409 1409" version="1.1" xmlns="http://www.w3.org/2000/svg" xmlns:xlink="http://www.w3.org/1999/xlink">
    <title>wrapped NEAR 2</title>
    <defs>
        <linearGradient x1="25.2419779%" y1="77.122099%" x2="76.7380305%" y2="21.0928869%" id="linearGradient-1">
            <stop stop-color="#FFFFFF" offset="0%"></stop>
            <stop stop-color="#FFFFFF" stop-opacity="0" offset="42%"></stop>
            <stop stop-color="#FFFFFF" stop-opacity="0" offset="59%"></stop>
            <stop stop-color="#FFFFFF" offset="100%"></stop>
        </linearGradient>
    </defs>
    <g id="Symbols" stroke="none" stroke-width="1" fill="none" fill-rule="evenodd">
        <g id="wrapped-NEAR">
            <g id="Group-34" fill="#4C6BF5">
                <circle id="Oval" cx="704.5" cy="704.5" r="704.5"></circle>
            </g>
            <g id="noun_candy_123335" transform="translate(705.000000, 705.000000) scale(-1, 1) translate(-705.000000, -705.000000) translate(138.000000, 147.000000)" fill-rule="nonzero">
                <g id="Group">
                    <path d="M680.583572,878.508475 C581.220119,878.508475 469.030953,825.977035 380.504871,737.99755 C233.295775,591.703184 195.302286,391.471558 295.812171,291.640468 C332.856271,254.839988 384.445732,235.389831 444.991697,235.389831 C544.35515,235.389831 656.544316,287.92127 745.070398,375.900755 C892.297407,522.177325 930.290896,722.426747 829.781011,822.240042 C792.736911,859.058317 741.14745,878.508475 680.583572,878.508475 Z M445.563922,271.118644 C394.745293,271.118644 351.930866,286.949202 321.758424,316.92054 C235.234246,402.832444 273.231826,580.419289 406.420327,712.755639 C488.360442,794.167397 591.036278,842.779661 681.070128,842.779661 C731.906664,842.779661 774.703185,826.931316 804.893533,796.977766 C891.399805,711.065861 853.420131,533.496803 720.213724,401.142666 C638.291515,319.713121 535.615679,271.118644 445.563922,271.118644 Z" id="Shape" fill="#FFFFFF"></path>
                    <g transform="translate(0.318477, 0.318439)">
                        <g id="Group-28" transform="translate(637.526588, 620.349303)">
                            <path d="M121.951211,127.571348 C237.986525,52.4619999 308.977036,17.8737728 334.922743,23.8066665 C373.841303,32.7060071 305.017704,118.077907 311.238033,151.968649 C319.21317,195.420263 372.838557,218.767947 372.802816,246.739457 C372.76614,275.729432 320.061644,296.256503 311.377476,341.968837 C305.147176,374.764326 398.443536,461.593885 334.354356,470.090099 C291.628236,475.754242 220.926284,441.095744 122.248502,366.114606 L121.951211,127.571348 Z" id="Rectangle" fill="#FFFFFF" transform="translate(247.377013, 246.921001) rotate(45.000000) translate(-247.377013, -246.921001) "></path>
                            <path d="M119.824365,141.072423 C218.26484,73.2069819 277.867836,41.6484433 298.633353,46.3968069 C329.781629,53.5193522 274.699005,121.84635 279.677414,148.970646 C286.060276,183.746941 328.979086,202.43315 328.95048,224.820015 C328.921127,248.022006 286.739347,264.45075 279.789016,301.036402 C274.802627,327.284116 349.471903,396.777745 298.178448,403.57765 C263.982811,408.11092 205.167249,375.890248 121.731763,306.915633 L119.824365,141.072423 Z" id="Rectangle" fill="#4C6BF5" transform="translate(224.387423, 224.964027) rotate(45.000000) translate(-224.387423, -224.964027) "></path>
                        </g>
                        <g id="Group-57" transform="translate(248.166597, 247.349303) scale(-1, -1) translate(-248.166597, -247.349303) translate(0.666597, 0.349303)">
                            <path d="M121.92983,127.571348 C237.965145,52.4619999 308.955655,17.8737728 334.901362,23.8066665 C373.819923,32.7060071 304.996323,118.077907 311.216652,151.968649 C319.19179,195.420263 372.817177,218.767947 372.781435,246.739457 C372.744759,275.729432 320.040263,296.256503 311.356095,341.968837 C305.125796,374.764326 398.422156,461.593885 334.332975,470.090099 C291.606855,475.754242 220.904904,441.095744 122.227121,366.114606 L121.92983,127.571348 Z" id="Rectangle" fill="#FFFFFF" transform="translate(247.355633, 246.921001) rotate(45.000000) translate(-247.355633, -246.921001) "></path>
                            <path d="M124.049638,141.072423 C222.490113,73.2069819 282.093109,41.6484433 302.858626,46.3968069 C334.006902,53.5193522 278.924278,121.84635 283.902687,148.970646 C290.285549,183.746941 333.204359,202.43315 333.175753,224.820015 C333.1464,248.022006 290.96462,264.45075 284.014289,301.036402 C279.0279,327.284116 353.697176,396.777745 302.403721,403.57765 C268.208084,408.11092 209.392522,375.890248 125.957036,306.915633 L124.049638,141.072423 Z" id="Rectangle" fill="#4C6BF5" transform="translate(228.612696, 224.964027) rotate(45.000000) translate(-228.612696, -224.964027) "></path>
                        </g>
                    </g>
                </g>
            </g>
            <g id="NEAR-logo" transform="translate(563.000000, 562.000000)" fill-rule="nonzero">
                <path d="M37.125,286 C46.125,286 55.125,281.955556 61.3125,274.444444 L279,15.6 C272.8125,5.77777778 262.6875,0 252,0 C243,0 234,4.04444444 227.8125,10.9777778 L9,269.244444 C14.625,279.644444 25.3125,286 37.125,286 L37.125,286 Z" id="Path" fill="url(#linearGradient-1)"></path>
                <path d="M32.6861167,283 C37.8470825,283 43.0080483,281.856566 47.5955734,279.569697 L47.5955734,65.1757576 L220.201207,271.565657 C226.509054,278.99798 235.684105,283 245.432596,283 L252.313883,283 C270.090543,283 285,268.707071 285,250.412121 L285,32.5878788 C283.853119,14.2929293 269.517103,0 251.740443,0 C246.579477,0 241.418511,1.14343434 236.830986,3.43030303 L236.830986,217.824242 L64.2253521,11.4343434 C57.917505,4.0020202 48.7424547,0 38.9939638,0 L32.6861167,0 C14.3360161,0 0,14.2929293 0,32.5878788 L0,250.983838 C0,268.707071 14.3360161,283 32.6861167,283 Z" id="Path" fill="#FFFFFF"></path>
            </g>
        </g>
    </g>
</svg>